<?xml version="1.0" encoding="UTF-8"?><svg id="a" xmlns="http://www.w3.org/2000/svg" viewBox="0 0 500.99 681.84"><defs><style>.p{font-family:BlackadderITC-Regular, 'Blackadder ITC';font-size:179.78px;}.p,.q{fill:#231f20;}.r{fill:none;stroke:#231f20;stroke-linecap:round;stroke-linejoin:round;stroke-width:.99px;}.q,.s,.t{stroke-width:0px;}.s{fill:#b6afd6;}.t{fill:#dad9d9;}</style></defs><g id="b"><line class="r" x1="185.91" y1="526.62" x2="185.91" y2="526.62"/></g><g id="c"><polygon class="r" points="151.21 268.23 190.21 .5 312.55 .5 349.79 268.23 151.21 268.23"/></g><g id="d"><polygon class="q" points="151.21 268.23 190.21 .5 312.55 .5 349.79 268.23 151.21 268.23"/></g><g id="e"><polygon class="r" points="195.53 268.23 305.46 268.23 275.32 43.05 225.67 43.05 195.53 268.23"/></g><g id="f"><polygon class="t" points="195.53 268.23 305.46 268.23 275.32 43.05 225.67 43.05 195.53 268.23"/></g><g id="g"><rect class="r" x="123.94" y="610.43" width="271.28" height="70.92"/></g><g id="h"><rect class="q" x="123.94" y="610.43" width="271.28" height="70.92"/></g><g id="i"><rect class="r" x="170.92" y="628.16" width="177.3" height="17.73"/></g><g id="j"><rect class="t" x="170.92" y="628.16" width="177.3" height="17.73"/></g><g id="k"><polygon class="r" points="105.11 610.43 381.7 610.43 424.25 610.43 454.4 594.94 479.22 559.48 489.86 518.23 500.5 482.77 500.5 456.17 500.5 420.71 484.54 388.79 473.9 355.11 456.17 324.96 440.21 300.14 427.8 287.73 399.43 268.23 378.16 268.23 328.51 268.23 275.32 268.23 213.26 268.23 124.61 268.23 74.96 277.09 64.33 287.73 53.69 307.23 21.77 349.79 7.59 392.34 .5 439.33 .5 461.49 .5 512.91 .5 530.64 12.91 559.48 28.86 586.08 50.14 594.94 74.96 610.43 105.11 610.43"/></g><g id="l"><polygon class="q" points="105.11 610.43 381.7 610.43 424.25 610.43 454.4 594.94 479.22 559.48 489.86 518.23 500.5 482.77 500.5 456.17 500.5 420.71 484.54 388.79 473.9 355.11 456.17 324.96 440.21 300.14 427.8 287.73 399.43 268.23 378.16 268.23 328.51 268.23 275.32 268.23 213.26 268.23 124.61 268.23 74.96 277.09 64.33 287.73 53.69 307.23 21.77 349.79 7.59 392.34 .5 439.33 .5 461.49 .5 512.91 .5 530.64 12.91 559.48 28.86 586.08 50.14 594.94 74.96 610.43 105.11 610.43"/></g><g id="m"><path class="r" d="M110.54,311.4c-26,15.56-42.12,51.67-44.33,56.74-16.62,38.16-17.88,69.49-19.5,109.93-1.73,42.95,3.37,58.09,12.41,69.15,3.69,4.51,14.3,17.5,30.14,19.5,8.17,1.04,10.63-1.75,26.6-1.77,10.08-.02,10.08,1.09,24.82,1.77,11.99.55,21.28.25,28.37,0,14.25-.5,24.76-1.6,26.6-1.77,41.71-4.02,194.01,26.04,228.72-1.77,7.91-6.33,12.41-14.18,12.41-14.18,5.95-10.36,5.2-18.4,7.09-31.91,3.4-24.25,9.18-22.48,10.64-40.78.57-7.17-1.39-18.47-5.32-40.78-3.49-19.82-5.31-29.98-8.87-42.55-4.66-16.5-7.29-25.8-14.18-37.23-4.17-6.92-10.71-17.52-23.05-26.6-15.35-11.29-30.98-13.81-44.33-15.96-2.82-.45-13.15-.9-33.69-1.77-34.94-1.48-41.4-1.67-49.65-1.77-15.84-.2-13.78.22-28.37,0-24.8-.37-26.63-1.52-47.87-1.77-28.81-.35-26.2,1.75-37.23,0-13.66-2.16-21.16-5.92-33.69-3.55-8.43,1.6-14.33,5.06-17.73,7.09Z"/></g><g id="n"><path class="s" d="M110.54,311.4c-26,15.56-42.12,51.67-44.33,56.74-16.62,38.16-17.88,69.49-19.5,109.93-1.73,42.95,3.37,58.09,12.41,69.15,3.69,4.51,14.3,17.5,30.14,19.5,8.17,1.04,10.63-1.75,26.6-1.77,10.08-.02,10.08,1.09,24.82,1.77,11.99.55,21.28.25,28.37,0,14.25-.5,24.76-1.6,26.6-1.77,41.71-4.02,194.01,26.04,228.72-1.77,7.91-6.33,12.41-14.18,12.41-14.18,5.95-10.36,5.2-18.4,7.09-31.91,3.4-24.25,9.18-22.48,10.64-40.78.57-7.17-1.39-18.47-5.32-40.78-3.49-19.82-5.31-29.98-8.87-42.55-4.66-16.5-7.29-25.8-14.18-37.23-4.17-6.92-10.71-17.52-23.05-26.6-15.35-11.29-30.98-13.81-44.33-15.96-2.82-.45-13.15-.9-33.69-1.77-34.94-1.48-41.4-1.67-49.65-1.77-15.84-.2-13.78.22-28.37,0-24.8-.37-26.63-1.52-47.87-1.77-28.81-.35-26.2,1.75-37.23,0-13.66-2.16-21.16-5.92-33.69-3.55-8.43,1.6-14.33,5.06-17.73,7.09Z"/></g><g id="o"><text class="p" transform="translate(78.93 497.34) scale(.35 1)"><tspan x="0" y="0">Notable Nails</tspan></text></g></svg>