<?xml version="1.0" standalone="no"?>
<!DOCTYPE svg PUBLIC "-//W3C//DTD SVG 20010904//EN"
 "http://www.w3.org/TR/2001/REC-SVG-20010904/DTD/svg10.dtd">
<svg version="1.0" xmlns="http://www.w3.org/2000/svg"
 width="682.000000pt" height="682.000000pt" viewBox="0 0 682.000000 682.000000"
 preserveAspectRatio="xMidYMid meet">
<metadata>
Created by potrace 1.14, written by Peter Selinger 2001-2017
</metadata>
<g transform="translate(0.000000,682.000000) scale(0.100000,-0.100000)"
fill="#000000" stroke="none">
<path d="M2803 6798 c0 -13 -4 -43 -8 -68 -4 -25 -9 -58 -11 -75 -1 -16 -3
-30 -4 -30 -1 0 -3 -11 -5 -25 -4 -40 -16 -123 -20 -145 -3 -11 -7 -38 -9 -60
-5 -42 -15 -113 -22 -155 -3 -14 -9 -56 -14 -95 -15 -109 -21 -148 -26 -180
-3 -16 -7 -43 -10 -60 -7 -57 -25 -180 -31 -215 -3 -19 -7 -44 -8 -55 -2 -20
-14 -100 -19 -133 -4 -19 -12 -78 -31 -212 -13 -88 -18 -127 -18 -142 -1 -10
-4 -18 -7 -18 -3 0 -5 -12 -5 -27 -1 -16 -4 -48 -7 -73 -11 -76 -38 -253 -44
-290 -3 -19 -7 -50 -9 -69 -4 -35 -10 -78 -21 -144 -9 -55 -13 -87 -19 -137
-3 -25 -7 -54 -9 -65 -3 -11 -8 -40 -11 -65 -3 -25 -8 -54 -10 -65 -2 -11 -4
-27 -4 -37 -1 -10 -8 -15 -18 -13 -10 1 -28 -2 -40 -6 -13 -5 -23 -5 -23 -1 0
15 -192 3 -330 -22 -80 -14 -158 -28 -175 -31 -16 -2 -41 -7 -55 -10 -13 -2
-42 -7 -64 -11 -22 -3 -47 -9 -56 -14 -38 -21 -129 -133 -169 -210 -35 -68
-134 -211 -201 -293 -6 -7 -44 -58 -85 -113 -63 -84 -82 -120 -114 -210 -46
-129 -77 -227 -72 -233 1 -2 -1 -7 -7 -10 -10 -7 -39 -123 -47 -186 -5 -43
-14 -104 -21 -139 -2 -11 -7 -43 -10 -71 -3 -27 -10 -65 -14 -84 -5 -19 -10
-249 -10 -511 0 -457 0 -480 20 -526 11 -27 28 -62 37 -79 9 -16 17 -32 16
-35 -2 -12 53 -129 90 -192 122 -207 120 -204 167 -223 117 -47 223 -97 250
-119 8 -7 49 -33 91 -59 l77 -47 241 0 c132 0 242 -3 242 -7 1 -5 2 -163 3
-353 l1 -345 1361 -3 1361 -2 0 352 -1 353 150 5 c152 5 173 10 244 55 22 14
40 23 40 20 0 -3 17 5 38 18 20 13 40 25 45 25 24 4 85 49 103 76 11 17 66 96
121 176 78 112 104 159 116 205 9 33 27 104 41 159 14 54 28 108 30 120 2 11
32 112 65 223 l61 203 0 312 0 313 -80 159 c-54 107 -94 205 -125 305 -57 180
-64 199 -87 233 -10 14 -18 31 -18 37 0 6 -4 11 -9 11 -5 0 -12 11 -15 24 -3
14 -12 31 -19 38 -7 7 -27 38 -44 68 -42 77 -136 224 -145 228 -5 2 -8 8 -8
14 0 31 -188 238 -216 238 -7 0 -14 4 -16 8 -1 5 -32 28 -68 52 -36 24 -66 47
-68 52 -2 4 -8 8 -13 8 -5 0 -28 12 -50 27 l-40 26 -240 0 c-259 -1 -249 -3
-253 52 0 14 -3 25 -6 25 -3 0 -5 12 -5 28 -1 26 -10 105 -20 167 -3 17 -7 46
-9 65 -3 19 -7 49 -10 65 -2 17 -10 68 -16 115 -17 124 -19 142 -24 170 -3 14
-7 48 -10 75 -3 28 -8 63 -11 79 -3 16 -8 51 -9 77 -2 26 -6 51 -9 56 -3 4 -8
35 -11 68 -3 33 -8 71 -10 85 -3 14 -8 48 -11 75 -10 73 -15 106 -20 140 -2
17 -7 55 -10 85 -3 30 -8 62 -10 70 -3 8 -7 35 -10 60 -3 25 -8 61 -11 80 -2
19 -9 67 -14 105 -5 39 -12 81 -15 95 -2 14 -7 50 -9 80 -3 30 -6 55 -6 55 -1
0 -3 9 -4 20 -2 11 -6 38 -9 60 -4 22 -9 65 -12 95 -3 30 -8 62 -10 70 -2 8
-7 39 -10 69 -4 30 -9 63 -11 75 -4 19 -13 81 -19 131 -10 81 -18 142 -21 155
-1 8 -3 18 -3 23 -1 4 -279 7 -619 7 l-618 0 -1 -22z"/>
</g>
</svg>
